<svg width="879" height="878" viewBox="0 0 879 878" fill="none" xmlns="http://www.w3.org/2000/svg">
<path d="M593.076 120.22C595.818 120.127 598.565 120.061 601.308 120.021C654.108 119.461 705.522 139.734 743.609 176.577C750.21 182.961 758.142 193.575 763.399 201.209C790.791 241.084 805.662 288.209 806.113 336.565C806.714 391.456 788.679 444.933 754.948 488.271C742.836 503.881 728.377 518.427 714.505 532.489C663.413 584.273 512.614 739.123 440.998 739.286C375.419 739.436 246.264 612.259 198.034 564.715C183.936 550.636 170.027 536.368 156.311 521.917C147.437 512.644 136.02 501.124 128.035 491.375C102.14 459.539 84.7614 421.656 77.5285 381.278C65.9955 317.22 80.557 251.213 117.978 197.93C121.726 192.571 128.631 183.232 133.131 178.69C161.755 149.79 200.307 130.504 240.067 123.477C297.483 113.351 356.49 128.306 402.127 164.552C414.475 174.329 426.848 187.459 438.088 198.734L487.476 248.309L511.987 272.901C526.279 287.232 534.473 297.538 556.761 294.039C579.732 290.431 593.745 261.68 582.238 241.626C576.35 231.366 557.959 214.642 548.873 205.423L507.39 163.161C505.914 161.642 496.772 152.756 496.497 151.375C500.24 144.341 539.705 129.909 548.559 127.455C562.594 123.564 578.543 121.132 593.076 120.22ZM402.762 420.923C394.897 420.98 387.032 420.982 379.167 420.929C363.808 420.888 351.561 420.042 339.92 431.832C333.061 438.781 329.569 448.243 329.694 457.991C329.859 467.676 333.892 476.898 340.894 483.598C351.977 494.235 363.067 493.977 377.488 493.905C385.587 493.862 394.931 493.677 402.968 494.025C402.676 501.407 402.866 508.841 402.833 516.223C402.769 530.898 401.719 543.305 412.372 554.953C418.908 562.198 428.106 566.49 437.864 566.845C440.47 566.923 443.079 566.785 445.663 566.438C466.376 562.07 476.93 545.761 476.14 525.398C475.746 515.182 476.256 504.305 476.11 493.999C484.269 493.827 492.433 493.789 500.596 493.883C516.18 493.913 527.765 494.393 539.362 482.076C545.971 475.14 549.525 465.841 549.22 456.268C548.988 446.532 544.86 437.298 537.752 430.631C526.348 419.932 512.858 420.603 498.244 420.916C491.772 421.054 482.046 420.29 475.99 420.995L476.115 397.356C476.145 382.328 476.947 370.173 465.522 358.456C459.071 351.84 450.251 348.061 441.006 347.955C438.766 347.947 435.302 348.034 433.152 348.246C422.351 350.651 414.923 354.856 408.654 364.389C401.89 374.672 402.822 386.504 402.841 398.346C402.91 405.872 402.884 413.398 402.762 420.923Z" fill="white"/>
</svg>
