<svg width="959" height="959" viewBox="0 0 959 959" fill="none" xmlns="http://www.w3.org/2000/svg">
<path d="M221 400.547C226.911 401.08 232.937 403.579 238.809 404.661C265.022 409.493 292.171 408.423 318.529 405.521C338.558 403.315 358.572 398.283 378.505 404.226C383.413 405.689 386.642 406.524 391.104 409.098C386.353 411.453 330.603 444.989 329.676 446.305C314.922 467.244 295.071 493.641 280.948 515.345C273.329 527.201 270.777 541.619 273.861 555.377C280.019 583.791 307.498 597.272 334.782 596.115C366.529 594.762 386.605 573.934 403.436 549.308C407.358 543.567 411.927 536.773 416.873 531.818C418.957 529.931 435.512 524.293 439.28 523.184C443.2 522.589 447.809 530.039 449.836 532.333C494.423 582.798 556.337 609.344 623.251 609.864C634.536 609.953 648.046 609.011 659.069 609.915C661.892 610.149 678.722 621.055 682.215 623.148L723.619 647.746C732.637 653.14 744.054 658.736 752.421 665.006C765.27 674.638 767.743 694.188 757.535 706.532C738.491 729.57 714.998 712.366 695.832 700.088C689.927 696.3 683.877 693.224 677.813 689.758C674.03 687.567 670.677 684.996 666.814 682.894C654.911 676.422 636.555 659.71 625.204 675.945C622.245 680.182 623.298 685.441 624.193 690.171C630.973 697.56 653.084 709.711 662.665 715.293L684.093 728.062C695.364 734.627 707.098 740.008 710.929 753.676C712.975 760.972 712.006 768.787 708.231 775.361C701.343 787.279 687.965 793.75 674.339 789.657C670.026 788.365 665.559 786.262 661.686 783.968C644.581 773.821 627.573 763.355 610.351 753.423C601.154 748.736 595.025 741.553 583.295 742.714C573.391 743.534 568.98 754.861 572.829 763.13C575.521 768.918 586.98 774.149 592.238 777.408C605.841 785.841 619.721 793.53 633.422 801.767C642.918 807.475 651.97 812.523 654.339 824.384C657.411 838.886 652.101 853.088 637.814 858.951C620.072 866.471 604.942 854.409 590.52 845.526C579.942 838.773 568.268 833.009 557.831 826.112C548.465 819.607 534.272 812.387 527.468 826.678C518.131 846.303 552.179 855.364 564.461 865.122C585.42 881.783 579.263 911.705 554.056 918.401C537.405 922.826 523.68 908.638 510.208 901.581C503.053 897.788 496.146 893.546 489.193 889.107C490.401 886.864 491.543 884.185 492.798 882.059C508.209 855.973 524.706 838.043 513.528 806.327C508.93 793.165 499.256 782.39 486.664 776.396C475.932 771.32 457.743 769.48 446.715 773.348C446.647 772.805 446.565 772.266 446.469 771.732C444.272 759.403 433.97 746.367 423.696 739.525C408.933 729.696 393.517 729.598 376.805 732.567C376.196 723.895 372.445 718.084 367.418 711.266C352.768 691.393 330.884 687.885 307.811 691.861L307.707 691.262C305.105 676.914 296.378 666.177 284.513 657.875C273.105 649.891 256.657 648.542 243.162 650.785C227.207 653.243 215.228 663.54 206.642 676.755C204.466 680.103 197.603 695.659 193.699 696.342C193.242 695.687 186.87 676.764 186.395 675.149C181.483 658.474 176.654 641.097 165.027 627.695C156.673 618.068 145.859 612.551 135.901 604.825C133.46 602.929 129.74 600.892 127.874 598.649C128.501 594.355 146.917 557.592 149.939 551.223L201.164 442.194C203.403 437.418 218.73 402.817 221 400.547Z" fill="white"/>
<path d="M731.682 391.081C733.377 390.862 732.633 390.708 734.037 391.289L734.819 393.32C736.927 398.85 739.703 402.657 742.031 407.771L762.438 451.488L793.24 516.962C798.334 527.821 803.443 539.668 808.65 550.424L825.915 586.794C828.505 592.296 833.927 601.755 834.859 607.322C834.625 607.819 834.302 608.404 833.805 608.76C815.342 622.063 788.529 634.655 765.917 636.509C761.787 636.846 735.208 619.333 730.01 616.439C709.416 604.972 689.197 591.387 668.284 580.51C664.782 579.395 659.738 579.465 656.189 579.554C634.387 579.971 612.336 581.132 590.731 577.475C586.32 576.731 581.848 575.471 577.493 574.624C535.448 566.434 498.993 542.257 470.678 510.673C466.763 506.309 463.019 501.579 459.15 497.047C451.849 485.677 437.982 490.791 427.849 495.225C418.414 499.355 408.192 501.823 399.222 506.51C394.189 510.036 390.607 516.47 387.096 520.942C374.729 536.699 365.617 555.598 346.314 563.737C333.176 569.281 310.67 566.883 304.4 552.896C297.072 536.554 314.315 520.066 323.142 507.456L341.587 480.826C351.681 466.354 350.784 467.601 365.933 458.601L396.107 440.969L438.736 415.837C446.495 411.278 459.451 402.767 467.781 399.979C481.274 395.85 496.338 394.955 510.33 395.141C542.959 395.576 575.058 400.208 607.27 404.723C624.74 407.172 647.606 408.406 665.208 407.109C685.572 405.608 712.376 398.147 731.682 391.081Z" fill="white"/>
<path d="M475.547 40.3907C486.903 39.1773 487.02 42.264 494.643 47.9515C499.003 51.2073 506.902 56.2744 511.725 58.8358C530.606 68.7268 559.643 78.6601 580.939 79.1681C617.112 80.0302 614.242 83.8227 612.715 118.155C610.444 169.287 597.183 218.534 570.52 262.341C553.045 290.876 528.405 314.34 499.054 330.402C494.461 332.866 488.322 336.529 483.424 337.709C478.039 338.224 473.763 337.404 468.893 335.045C462.169 331.788 455.022 328.244 448.735 324.221C412.703 301.167 385.612 264.831 369.267 225.636C365.982 217.757 363.27 209.375 360.544 201.288C357.663 192.746 355.967 183.833 354.021 175.048C352.699 169.074 351.071 163.137 350.03 157.107C347.906 144.809 342.483 96.7916 347.766 86.746C352.25 78.2199 366.346 79.6327 374.505 79.2955C397.649 78.3393 432.236 68.7048 451.645 56.0969C455.644 53.499 459.672 50.8702 463.503 48.0297C466.245 45.9966 468.987 43.3822 471.947 41.7156C473.052 41.0942 474.335 40.7431 475.547 40.3907ZM469.062 194.811C462.689 188.868 455.141 179.253 445.588 180.336C434.204 181.628 431.046 190.32 432.569 200.506C438.234 207.012 442.111 210.878 448.511 216.673C470.612 242.02 476.545 230.806 494.456 210.73C501.1 203.749 507.712 196.758 513.926 189.381C518.712 183.684 526.471 178.179 527.23 170.22C527.688 165.403 525.104 161.837 521.854 158.637C518.052 154.892 515.237 155.126 510.269 155.188C501.026 156.262 492.068 169.527 485.83 176.158C481.04 181.256 475.028 187.232 470.729 192.632C470.158 193.347 469.601 194.074 469.062 194.811Z" fill="white"/>
<path d="M819.079 320.191C823.293 321.775 836.569 353.679 839.505 360.084L860.117 403.962L925.613 542.494C927.945 547.402 941.862 579.178 943.95 581.412C924.817 591.671 904.27 600.329 884.715 609.849C883.657 610.364 881.288 610.589 880.07 610.715C873.519 610.228 868.691 607.035 865.812 601.018C845.053 557.652 825.021 513.842 804.427 470.401L772.056 401.484C768.858 394.734 765.515 387.802 762.41 381.045C756.379 367.913 750.451 363.66 758.542 349.464C771.307 342.094 786.329 336.332 799.496 329.497C804.226 327.043 816.035 323.4 819.079 320.191Z" fill="white"/>
<path d="M138.318 320.557C139.874 320.621 158.94 329.269 161.681 330.645C172.868 336.259 184.518 341.596 195.754 347.151C199.958 348.941 202.722 352.115 203.862 356.538C206.224 365.703 200.094 372.738 196.71 380.768C193.831 387.6 190.123 394.588 186.861 401.551L144.457 491.736C131.493 519.312 118.911 547.193 105.408 574.497C99.6553 586.133 94.6131 606.971 81.3435 610.506C78.3971 610.623 74.3617 610.403 71.9159 608.834C65.1659 604.508 18.4178 585.272 15.9375 581.207C16.7477 578.426 17.9977 575.607 19.1987 572.97C25.2075 559.784 31.6489 546.401 37.8719 533.351L78.4496 447.387L119.384 360.342L130.208 336.723C132.676 331.353 135.019 325.405 138.318 320.557Z" fill="white"/>
<path d="M390.002 760.644C409.995 759.698 422.873 775.399 416.238 794.705C415.337 797.328 413.051 800.638 411.612 803.115L400.838 821.378C396.939 828.111 393.179 834.536 389.176 841.199C384.437 849.811 379.536 858.422 374.426 866.827C369.543 874.863 364.206 877.255 355.378 879.175C342.854 880.163 331.028 872.877 328.214 860.14C325.376 847.301 332.139 839.485 338.238 829.216L353.491 803.247C360.422 791.456 366.978 778.616 375.139 767.682C378.492 763.191 384.727 761.665 390.002 760.644Z" fill="white"/>
<path d="M250.766 679.625C257.295 678.97 263.115 680.107 268.64 683.69C273.961 687.15 277.648 692.624 278.856 698.857C281.468 711.739 273.961 720.635 267.938 731.111C257.3 749.616 246.591 768.295 235.386 786.45C231.396 792.912 226.239 796.41 218.761 797.777C197.411 799.641 185.041 784.305 191.656 763.496C193.534 757.581 197.483 752.182 200.672 746.863L211.112 729.237C218.519 716.66 225.451 703.174 233.514 691.027C238.054 684.191 242.431 681.077 250.766 679.625Z" fill="white"/>
<path d="M319.736 720.411C326.456 719.774 332.672 720.795 338.423 724.541C343.456 727.838 346.95 733.017 348.12 738.921C349.654 746.357 348.241 752.754 344.516 759.277C339.828 767.481 334.628 775.474 329.921 783.654L310.802 816.372C303.627 828.439 302.423 835.304 287 838.432C272.576 839.766 261.936 832.471 259.08 818.034C258.598 815.599 258.383 810.387 259.306 807.976C264.903 793.333 274.323 780.367 282.043 766.802C289.047 754.346 295.749 742.48 303.474 730.535C308.016 723.511 311.699 721.919 319.736 720.411Z" fill="white"/>
<path d="M460.834 800.92C473.338 801.145 484.248 807.846 487.165 820.882C490.27 834.728 477.782 847.236 471.867 858.797C470.06 862.328 467.931 866.481 465.845 869.764C457.2 883.376 454.341 893.65 437.149 896.661C424.387 896.782 412.089 887.422 410.509 874.545C410.047 870.564 410.55 866.533 411.974 862.787C414.547 856.142 423.285 842.942 427.102 836.358C431.887 828.112 437.003 818.452 442.467 810.693C446.993 804.263 453.313 801.885 460.834 800.92Z" fill="white"/>
</svg>
