<svg width="1238" height="848" viewBox="0 0 1238 848" fill="none" xmlns="http://www.w3.org/2000/svg">
<path d="M23.5669 282.035C42.3169 280.506 61.5438 284.078 80.4204 284.117C124.167 284.208 191.671 271.813 227.436 300.429C243.328 313.144 251.568 330.438 253.751 350.49C256 371.134 251.106 393.764 237.892 410.167C209.599 445.285 159.3 445.666 118.363 450.103C117.586 468.373 117.425 486.857 117.625 505.149C117.802 521.333 115.805 539.887 123.644 554.491C124.331 555.417 125.034 556.332 125.753 557.234C134.281 567.879 146.694 569.881 159.35 571.292C163.062 571.706 171.525 572.107 173.888 575.286C175.153 576.988 175.113 580.077 174.861 582.11C174.649 583.816 173.938 585.48 172.53 586.531C166.492 591.039 119.507 585.628 109.294 585.145C99.5715 584.708 89.8355 584.656 80.1084 584.99C62.6178 585.632 44.9401 589.334 27.3836 587.627C25.8017 587.473 23.5227 586.55 22.8255 585.01C16.1902 571.122 34.5407 572.175 43.1639 570.15C62.311 565.654 66.4549 555.682 67.7407 537.56C68.712 523.873 68.5903 510.192 68.604 496.216L68.611 442.266L68.5829 383.247C68.5463 361.396 69.9758 331.489 60.1306 311.533C53.8775 298.858 38.1919 299.342 26.3485 296.834C18.2982 295.129 15.4454 286.093 23.5669 282.035ZM118.383 429.645C134.92 430.052 149.455 430.565 165.828 426.012C169.922 424.874 173.53 423.138 177.454 421.677C188.884 415.19 197.05 406.648 200.357 393.286C205.729 371.583 205.312 340.546 194.871 320.376C184.821 300.963 155.75 299.661 136.529 300.42C125.181 302.775 117.91 304.3 117.955 317.881C118.078 354.515 116.357 393.213 118.383 429.645Z" fill="black"/>
<path d="M912.112 374.705C912.342 374.681 912.572 374.66 912.796 374.641C963.11 370.52 998.831 405.135 1002.49 454.463C1003.07 462.237 1004.01 470.898 993.793 471.068C951.059 471.78 908.166 470.486 865.437 471.624C864.594 493.02 866.44 513.367 878.231 531.979C886.619 545.43 900.043 554.963 915.509 558.451C936.572 563.154 970.99 560.26 989.712 548.348C991.369 546.992 993.734 545.959 995.681 544.994C1004.19 552.72 1002.69 555.288 995.439 563.651C962.449 601.706 885.551 597.247 849.647 565.846C807.243 528.76 807.32 445.535 845.707 405.024C864.287 385.423 885.486 376.217 912.112 374.705ZM866.116 455.241C881.841 455.537 897.572 455.614 913.297 455.47C919.821 455.455 950.31 457.16 954.356 453.254C957.524 450.197 957.754 444.363 957.713 440.283C957.553 425.943 952.327 410.634 941.905 400.549C934.125 393.022 924.982 390.241 914.318 390.466C912.943 390.497 911.569 390.539 910.195 390.594C877.199 393.527 866.063 426.724 866.116 455.241Z" fill="black"/>
<path d="M1177.03 284.506C1190.57 284.451 1204.1 284.281 1217.63 283.994C1218.52 296.791 1212.65 305.409 1208.35 316.882C1203.46 329.937 1198 343.006 1193.51 356.191C1176.01 407.343 1163.14 459.958 1155.03 513.408C1154.11 519.772 1152.53 533.354 1151.1 538.841C1149.18 546.195 1146.71 589.24 1144.34 591.992C1139.2 593.214 1106.75 592.888 1100.3 592.488C1100.12 587.657 1101.43 580.253 1102.18 575.273C1107.72 538.728 1121.75 504.298 1135.11 470.101C1149.64 437.42 1162.88 404.148 1178.78 372.013C1183.57 362.341 1188.81 352.633 1192.47 342.47C1163.63 341.301 1133.79 342.656 1104.96 342.669C1085.15 342.678 1077.03 356.201 1073.24 373.538C1071.61 381.017 1069.68 388.731 1069.24 396.5C1069 399.435 1068.54 407.723 1066.8 409.669L1065.38 409.559C1061.68 405.889 1065.14 384.425 1065.52 378.275C1067.49 347.036 1070.33 315.857 1074.01 284.774C1108.35 284.91 1142.69 284.82 1177.03 284.506Z" fill="black"/>
<path d="M398.788 374.704C408.129 373.509 421.756 374.59 429.58 380.474C436.118 385.413 440.43 392.744 441.568 400.859C442.505 407.605 441.068 415.255 436.868 420.725C433.852 424.734 429.347 427.357 424.372 428C394.8 431.687 406.876 412.291 395.288 401.324C386.119 392.645 368.94 406.811 362.002 416.159C356.822 423.032 353.291 431.004 351.683 439.458C349.05 452.877 350.181 482.761 350.097 497.235C350.588 514.863 349.026 534.221 351.278 551.595C354.242 570.966 374.958 570.336 389.74 573.733C396.433 575.27 399.809 580.866 395.037 586.808C388.603 590.286 346.651 585.49 336.839 585.162C328.497 584.854 320.143 585.138 311.841 586.015C303.783 586.136 277.46 589.95 270.592 587.319C269.59 586.301 269.414 584.987 269.281 583.622C269.074 581.517 268.912 578.311 270.266 576.559C274.068 571.639 293.978 573.48 302.601 562.712C305.164 559.511 306.012 556.305 306.59 552.315C308.949 536.054 307.698 518.3 307.704 501.836C307.713 477.176 308.881 451.515 306.148 427.014C302.584 395.072 279.328 406.882 270.004 399.033C268.823 398.038 268.137 396.706 268.051 395.162C267.943 393.23 268.848 390.285 270.212 388.885C271.379 387.689 272.92 387.379 274.496 387.085C285.466 385.04 296.878 384.586 307.952 383.066C316.297 381.921 331.119 378.578 338.786 378.643C340.581 378.666 342.291 379.411 343.529 380.711C348.331 385.767 344.943 408.866 344.861 417.552C350.396 408.641 354.26 398.427 361.498 390.597C372.248 378.966 383.684 375.62 398.788 374.704Z" fill="black"/>
<path d="M574.899 383.61C591.478 382.98 608.56 385.816 625.736 385.893C643.685 385.974 664.454 381.901 681.371 384.055C683.93 401.287 671.921 396.346 660.773 400.342C641.173 407.367 659.647 442.454 664.153 454.84C668.04 465.508 695.851 533.107 701.815 535.703C705.177 534.901 704.451 534.329 705.737 531.522C719.516 501.255 731.012 470.066 740.88 438.302C745.056 424.844 751.686 413.612 741.824 401.45C735.253 398.76 728.853 398.519 722.111 395.432C721.94 392.378 721.486 388.217 722.724 385.478C727.184 380.419 773.103 389.143 782.906 384.473C785.342 383.312 801.628 383.015 804.424 385.289C807.113 395.449 802.265 395.948 793.807 398.333C781.786 401.727 773.132 411.081 768.343 422.317C762.026 437.145 755.773 452.005 749.568 466.88C738.562 493.324 727.396 519.701 716.071 546.01L703.908 573.758C701.596 578.965 699.343 584.15 696.73 589.216C694.341 593.847 689.434 592.814 684.98 592.625C681.978 589.124 680.427 586.479 678.398 582.388C660.856 547.103 643.638 510.934 628.055 474.818C623.601 464.555 619.213 454.262 614.895 443.941C608.743 428.989 601.957 405.059 585.339 399.602C578.35 397.307 566.88 396.412 571.139 385.051C572.869 383.469 572.228 383.93 574.899 383.61Z" fill="black"/>
<path d="M518.27 378.836C526.473 378.63 526.825 386.454 526.698 392.684C526.531 400.922 526.486 409.122 526.527 417.36L526.533 501.889C526.521 517.604 526.021 534.787 527.584 550.33C529.216 566.566 534.295 569.652 549.826 573.414C551.958 574.108 556.057 574.783 557.718 576.373C560.177 578.729 559.081 584.021 557.244 586.355C551.249 590.421 516.869 584.541 505.762 584.995C489.219 585.67 472.856 588.023 456.646 587.983C452.171 587.995 447.818 587.848 447.131 582.471C446.282 572.097 465.146 573.421 471.302 570.32C480.858 565.507 483.658 559.249 483.974 548.967C484.455 533.265 484.243 516.771 484.169 501.058C484.069 479.877 484.622 458.798 483.518 437.67C482.908 426.648 483.2 415.453 474.371 407.566C466.657 400.673 441.415 405.92 450.58 389.432C452.31 386.468 477.367 385.003 481.237 384.154C493.532 382.331 505.985 380.106 518.27 378.836Z" fill="black"/>
<path d="M953.341 262.017C956.638 261.692 959.894 261.449 963.197 261.891C968.559 262.609 973.166 265.076 976.469 269.401C979.082 272.816 979.913 276.817 979.312 281.039C976.239 302.719 928.143 340.895 910.035 354.422C905.493 357.523 899.388 362.754 893.725 360.102C891.785 359.193 890.293 357.534 889.591 355.505C887.131 348.401 898.686 336.965 903.098 331.106C910.052 321.84 916.777 312.404 923.277 302.809C930.886 291.484 936.448 278.844 944.464 267.937C946.422 265.273 950.227 263.111 953.341 262.017Z" fill="black"/>
<path d="M495.701 284.001C509.471 281.001 523.071 289.714 526.102 303.476C529.133 317.239 520.451 330.858 506.696 333.92C492.895 336.992 479.222 328.277 476.182 314.47C473.141 300.663 481.887 287.011 495.701 284.001Z" fill="black"/>
</svg>
