<svg width="1157" height="1152" viewBox="0 0 1157 1152" fill="none" xmlns="http://www.w3.org/2000/svg">
<path d="M571.221 0.45532C603.6 -1.30543 657.118 2.22356 689.038 7.88598C833.363 34.4545 961.546 116.483 1046.13 236.402C1149.23 384.589 1183.96 561.825 1133.46 736.464C1097.36 862.298 1018.67 971.682 910.845 1045.91C794.836 1126.06 646.364 1170.19 505.848 1144.46C427.159 1129.75 396.204 1109.44 330.789 1065.19C306.768 1108.53 211.338 1149.03 162.804 1151.69C76.1632 1156.42 86.0079 1106.97 80.1185 1045.45C67.024 908.658 9.32684 780.684 1.2474 642.642C-8.46597 476.685 38.2607 310.505 151.525 186.41C240.192 89.6578 359.492 26.4144 489.332 7.33032C516.811 3.11732 543.499 1.72061 571.221 0.45532ZM583.864 283.893C577.661 283.696 553.02 283.672 548.002 284.702C473.394 291.709 414.352 324.728 366.123 382.089C288.845 473.412 278.419 600.435 289.451 715.01C293.316 755.128 307.692 832.626 334.142 863.463C352.785 885.198 407.305 829.182 425.213 817.535C467.256 844.025 513.492 861.812 563.286 865.511C824.944 873.783 973.909 575.223 796.116 378.717C741.484 318.336 664.416 286.312 583.864 283.893Z" fill="white"/>
</svg>
