<svg width="900" height="98" viewBox="0 0 900 98" fill="none" xmlns="http://www.w3.org/2000/svg">
<path d="M116.792 83.7056C116.789 85.1897 116.738 86.6737 116.642 88.1547C116.352 92.6639 112.149 97.2302 107.671 97.7709C105.704 98.0052 103.702 98.0082 101.717 97.9962C98.7198 97.9812 95.7012 98.0623 92.7306 97.7439C87.6977 97.2031 83.531 92.2674 83.531 87.1844C83.528 72.4462 83.531 57.708 83.531 42.9697C83.531 37.8417 79.889 34.1767 74.7751 34.1737C69.3165 34.1737 63.8609 34.1737 58.4053 34.1737C52.9497 34.1737 47.4941 34.1737 42.0355 34.1737C36.9217 34.1767 33.2796 37.8417 33.2796 42.9697C33.2796 57.708 33.2826 72.4462 33.2796 87.1844C33.2796 92.2674 29.113 97.2031 24.08 97.7439C21.1094 98.0623 18.0909 97.9812 15.0933 97.9962C13.1089 98.0082 11.1065 98.0052 9.1401 97.7709C4.66171 97.2302 0.459103 92.6639 0.168338 88.1547C0.0724151 86.6737 0.0214562 85.1897 0.0184586 83.7056C0.00646832 70.7609 -0.0205099 57.8191 0.0274514 44.8744C0.0484344 39.4159 3.78042 34.9938 9.14309 34.381C11.8739 34.0685 14.6586 34.1797 17.4224 34.1587C22.0866 34.1256 25.6148 31.0254 26.1753 26.381C26.2892 25.4467 26.3462 24.5034 26.3492 23.5661C26.3642 16.9931 26.4241 17.3296 26.3612 10.7565C26.3072 5.49333 30.5518 0.773856 35.5967 0.19406C36.3281 0.106941 37.0626 0.0108091 37.797 0.00780494C44.6644 -0.00120743 51.5349 -0.00120743 58.4053 0.00179669C65.2758 0.00179669 72.1462 0.00179669 79.0137 0.00780494C79.7481 0.0108091 80.4825 0.106941 81.2139 0.19406C86.2588 0.773856 90.5034 5.49333 90.4495 10.7565C90.3865 17.3296 90.4465 16.9931 90.4614 23.5661C90.4614 24.5034 90.5214 25.4467 90.6353 26.381C91.1959 31.0254 94.724 34.1256 99.3882 34.1587C102.152 34.1797 104.937 34.0685 107.668 34.381C113.03 34.9938 116.762 39.4159 116.783 44.8744C116.831 57.8191 116.804 70.7609 116.792 83.7056Z" fill="white"/>
<path d="M830.691 38.5966V22.835H899.569L830.691 38.5966ZM899.569 22.835V38.6754H874.982V81.1529H855.595V38.6754H830.691V22.835H899.569Z" fill="white"/>
<path d="M784.246 24.0163C778.361 24.0163 773.607 22.7291 769.981 20.1547C766.356 17.5278 764.57 13.5874 764.622 8.3335H775.104C775.104 10.7503 775.945 12.773 777.626 14.4017C779.36 16.0304 781.54 16.8448 784.167 16.8448C786.741 16.8448 788.869 16.0304 790.55 14.4017C792.284 12.773 793.151 10.7503 793.151 8.3335H803.632C803.632 13.5348 801.82 17.449 798.195 20.0759C794.622 22.7028 789.972 24.0163 784.246 24.0163ZM768.169 59.007L800.48 22.8342H819.867V81.152H800.48V44.9004L768.169 81.152H748.703V22.8342H768.169V59.007Z" fill="white"/>
<path d="M741.483 81.1529H721.86L716.422 71.1443H683.402L677.964 81.1529H658.341L689.943 22.835H709.881L741.483 81.1529ZM699.952 40.6456L690.495 57.9833H709.33L699.952 40.6456Z" fill="white"/>
<path d="M582.636 52.0721C582.636 46.2403 584.343 40.9865 587.758 36.3105C591.226 31.6346 595.928 27.9832 601.865 25.3562C607.854 22.6768 614.474 21.337 621.725 21.337C628.239 21.337 634.124 22.3878 639.378 24.4893C644.631 26.5384 648.94 29.4543 652.302 33.237C655.665 36.9673 657.897 41.3543 659.001 46.398H638.826C638.038 44.2964 636.698 42.4838 634.807 40.9602C632.968 39.3841 630.893 38.2019 628.581 37.4139C626.269 36.6258 624.01 36.2317 621.803 36.2317C618.704 36.2317 615.683 36.8622 612.741 38.1231C609.851 39.3841 607.487 41.2229 605.648 43.6397C603.862 46.0039 602.968 48.8147 602.968 52.0721C602.968 55.3295 603.862 58.1666 605.648 60.5834C607.434 62.9476 609.746 64.7602 612.583 66.0211C615.473 67.2295 618.546 67.8337 621.803 67.8337C625.429 67.8337 628.765 66.9668 631.812 65.2331C634.912 63.4993 637.197 61.03 638.668 57.8251H658.922C657.766 62.8163 655.507 67.2032 652.145 70.986C648.782 74.7163 644.5 77.6059 639.299 79.6549C634.097 81.7039 628.239 82.7284 621.725 82.7284C614.527 82.7284 607.933 81.3887 601.944 78.7092C596.007 76.0297 591.305 72.352 587.837 67.6761C584.37 63.0002 582.636 57.7988 582.636 52.0721Z" fill="white"/>
<path d="M520.507 22.835V59.0078L552.818 22.835H572.205V81.1529H552.818V44.9012L520.507 81.1529H501.042V22.835H520.507Z" fill="white"/>
<path d="M489.042 22.835V81.1529H469.498V36.6264H437.029V81.1529H417.485V22.835H489.042Z" fill="white"/>
<path d="M399.737 66.9674H407.539V88.7184H389.335V81.2317L346.621 81.1529V88.7184H328.416V66.9674H334.248C337.085 61.4509 339.37 56.5122 341.104 52.1515C342.838 47.7908 344.151 43.2462 345.045 38.5178C345.99 33.7368 346.463 28.5092 346.463 22.835H399.658L399.737 66.9674ZM363.407 36.784C362.566 41.8277 361.279 46.6613 359.545 51.2846C357.864 55.908 355.631 61.1356 352.847 66.9674H381.611V36.8628L363.407 36.784Z" fill="white"/>
<path d="M285.714 21.5733C292.911 21.5733 299.4 22.9131 305.179 25.5925C311.011 28.2195 315.556 31.8709 318.813 36.5468C322.123 41.1702 323.778 46.3978 323.778 52.2296C323.778 58.0089 322.123 63.2102 318.813 67.8336C315.556 72.457 311.037 76.1084 305.258 78.7879C299.479 81.4148 292.99 82.7283 285.793 82.7283C278.857 82.7283 272.448 81.4148 266.563 78.7879C260.679 76.1084 256.003 72.457 252.536 67.8336C249.121 63.1576 247.413 57.9563 247.413 52.2296C247.413 46.4504 249.121 41.2228 252.536 36.5468C256.003 31.8709 260.653 28.2195 266.485 25.5925C272.369 22.9131 278.779 21.5733 285.714 21.5733ZM285.793 67.9912C288.735 67.9912 291.546 67.3607 294.225 66.0998C296.957 64.8389 299.164 63.0263 300.845 60.6621C302.526 58.2978 303.367 55.487 303.367 52.2296C303.367 48.9722 302.5 46.1614 300.766 43.7972C299.085 41.3804 296.878 39.5678 294.146 38.3594C291.414 37.0985 288.577 36.468 285.635 36.468C282.64 36.468 279.803 37.0985 277.124 38.3594C274.444 39.6203 272.264 41.4592 270.583 43.876C268.954 46.2402 268.14 49.0248 268.14 52.2296C268.14 55.487 268.98 58.2978 270.661 60.6621C272.343 63.0263 274.523 64.8389 277.202 66.0998C279.934 67.3607 282.798 67.9912 285.793 67.9912Z" fill="white"/>
<path d="M237.07 22.835V81.1529H217.526V36.6264H185.057V81.1529H165.512V22.835H237.07Z" fill="white"/>
</svg>
