<svg width="879" height="878" viewBox="0 0 879 878" fill="none" xmlns="http://www.w3.org/2000/svg">
<path d="M427.131 27.6486C608.986 20.8531 761.948 162.542 768.858 344.185C775.764 525.826 634.004 678.7 452.156 685.701C270.163 692.715 116.966 550.97 110.053 369.181C103.14 187.391 245.13 34.4497 427.131 27.6486ZM370.309 250.023L369.7 250.224C364.947 251.754 349.48 253.504 343.485 254.376L286.362 262.757C279.275 263.806 269.194 264.43 262.84 267.186C247.046 274.036 241.933 295.949 253.228 309.019C258.85 315.452 265.566 321.321 271.781 327.243L308.721 362.476C314.396 367.874 324.076 376.503 328.863 381.914C327.707 391.317 325.71 401.795 324.102 411.201L316.069 458.407C314.819 465.833 311.479 481.806 311.747 488.426C311.983 493.939 313.906 499.251 317.255 503.641C321.554 509.18 327.901 512.759 334.869 513.574C346.885 515.023 357.646 507.289 367.971 501.836L414.112 477.476C418.041 475.397 436.997 464.546 440.495 464.962L441.053 465.202C448.173 468.323 459.375 474.758 466.487 478.587L509.566 501.621C515.845 504.97 528.236 512.185 534.361 513.887C539.747 515.4 545.477 515.152 550.713 513.179C557.696 510.513 563.327 505.171 566.353 498.346C567.971 494.591 568.74 490.526 568.611 486.441C568.499 481.755 565.838 467.972 564.903 462.501L555.786 409.214C554.628 402.432 551.769 388.197 551.451 382.194C568.585 365.125 585.865 348.208 603.299 331.446C609.037 325.834 623.892 311.924 627.647 306.241C630.428 301.973 631.879 296.979 631.823 291.887C631.806 284.566 628.866 277.555 623.647 272.412C620.75 269.55 617.239 267.387 613.376 266.088C608.715 264.523 591.479 262.333 585.826 261.524L536.94 254.415C528.768 253.25 516.214 251.874 508.398 250.094C498.312 229.072 488.106 208.107 477.779 187.201C472.616 176.628 466.981 163.749 460.538 153.916C456.422 147.631 446.559 144.228 439.126 144.229C425.956 145.306 419.312 149.999 413.521 161.92C410.524 168.092 407.38 174.42 404.355 180.599L381.693 226.873C378.248 233.906 373.968 243.382 370.309 250.023Z" fill="white"/>
<path d="M438.959 233.75C441.075 234.339 444.985 243.501 446.2 245.944L459.964 273.56C464.063 281.782 469.754 295.798 479.072 299.362C487.982 302.773 500.236 303.953 509.876 305.464C521.589 307.415 533.319 309.282 545.062 311.066C541.486 314.509 537.984 318.273 534.439 321.821C523.456 332.811 512.241 343.409 501.348 354.505C490.111 365.951 495.369 382.124 497.292 395.81C499.223 409.552 502.052 423.069 503.477 436.697C490.21 428.538 473.973 422.096 460.419 414.087C453.05 409.732 447.208 407.324 438.62 406.608C432.448 406.815 427.482 408.222 422.055 411.198C405.944 420.031 388.947 427.929 372.959 436.907C375.355 425.588 376.945 412.793 379.132 401.257C380.595 391.975 382.747 382.506 383.309 373.14C384.2 358.294 367.899 346.134 358.179 336.605C349.518 328.16 340.934 319.636 332.428 311.035C343.14 310.057 355.747 307.502 366.727 306.065C376.312 304.447 386.265 303.624 395.656 301.13C410.224 297.261 415.874 279.724 421.957 267.586L438.959 233.75Z" fill="white"/>
<path d="M761.369 565.658C763.567 566.606 769.442 577.786 771.103 580.655L793.954 620.075L830.312 682.834C836.745 693.946 843.63 705.315 849.484 716.693C851.201 720.033 851.595 724.024 851.51 727.784C851.355 734.973 848.351 741.811 843.153 746.789C837.578 752.04 830.762 754.745 823.122 754.604C791.958 754.034 759.992 755.599 728.922 754.664C720.037 771.174 708.02 790.641 698.453 807.117L687.028 826.816C679.014 840.638 674.474 849.864 656.821 850.584C654.911 850.49 653.215 850.292 651.344 849.872C645.85 848.646 640.884 845.705 637.172 841.474C632.644 836.308 621.18 815.297 617.012 808.099L582.449 748.396C577.14 739.222 570.972 727.767 565.436 718.987C572.11 717.379 592.063 708.723 598.299 705.881C653.662 680.583 702.269 642.599 740.18 595.016C746.888 586.601 755.747 574.837 761.369 565.658Z" fill="white"/>
<path d="M116.925 565.645C117.643 565.923 132.701 587.273 134.615 589.781C147.369 606.441 161.472 622.029 176.781 636.382C209.476 667.039 247.287 691.746 288.506 709.391C296.147 712.654 305.444 716.521 313.389 719.012C308.104 727.534 302.433 738.033 297.322 746.861L263.216 805.783L251.576 825.992C244.128 838.956 239.923 848.358 223.761 850.519C213.159 850.866 204.29 846.93 198.511 837.927C193.526 830.155 188.93 821.799 184.301 813.804L157.931 768.279C156.441 765.707 152.257 757.025 150.272 755.769C144.979 752.412 64.3845 756.841 49.0368 753.9C45.6118 753.244 42.339 751.761 39.4626 749.806C33.3529 745.647 29.1901 739.59 27.8981 732.276C26.9959 727.166 27.3952 722.013 29.3594 717.194C32.612 709.216 37.8031 701.559 42.1268 694.108L65.9618 652.994L98.7402 596.439C103.849 587.62 111.335 573.67 116.925 565.645Z" fill="white"/>
</svg>
