<svg width="983" height="813" viewBox="0 0 983 813" fill="none" xmlns="http://www.w3.org/2000/svg">
<path d="M933.536 0C936.692 0.00709689 940.69 0.434853 943.793 1.0439C956.944 3.69103 968.448 11.4815 975.693 22.641C988.491 42.282 981.266 66.0669 977.973 87.7917L968.154 152.335L936.411 362.375L897.409 620.251L884.592 705.291C882.514 719.046 880.156 738.433 877.275 751.524C872.839 771.866 860.303 789.589 842.488 800.692C824.215 812.092 802.082 815.77 781.039 810.899C773.722 809.254 766.706 806.505 760.239 802.75C743.913 793.305 721.975 777.834 705.669 767.014L605.644 700.716L503.294 632.831C484.888 620.676 465.997 608.483 447.841 595.947C442.332 592.147 436.693 585.992 433.167 580.327C422.99 563.676 422.216 543.024 431.12 525.675C438.134 512.339 456.257 497.797 467.707 487.152L501.367 455.835L649.382 317.401L713.496 257.624C722.152 249.505 731.023 241.583 739.64 233.461C744.272 229.096 745.853 223.829 741.933 218.387C734.394 207.927 725.366 216.318 717.605 221.321C713.463 223.995 709.53 226.651 705.513 229.282C680.028 246.438 653.753 263.298 628.039 280.204L460.889 389.95L381.761 441.932C365.54 452.616 345.981 466.377 329.146 475.029C309.732 484.984 288.78 491.694 267.142 494.874C246.399 497.997 225.283 497.816 204.597 494.339C188.536 491.681 174.767 487.152 159.276 482.403L111.944 467.822L56.3429 450.693C45.808 447.461 35.2986 444.338 24.8375 440.815C10.618 436.028 1.51835 425.977 0.177805 410.744C-1.39466 392.879 7.53774 380.602 23.9967 373.776C44.6347 365.214 65.3191 356.659 85.9637 348.083L216.533 293.901L599.183 135.022L801.121 51.2124L865.111 24.6075C882.56 17.3403 916.492 1.24196 933.536 0Z" fill="white"/>
</svg>
