<svg width="1468" height="829" viewBox="0 0 1468 829" fill="none" xmlns="http://www.w3.org/2000/svg">
<path d="M0 50.633C8.73692 38.7982 14.8366 33.8324 29.9281 31.5151C68.3334 25.6184 123.602 28.9066 163.407 28.9023C193.25 28.898 233.28 25.9254 262.163 30.5314C272.108 32.1176 280.646 35.6713 288.767 41.6023C314.615 60.4775 330.281 116.608 344.948 146.341C370.091 197.312 476.365 409.44 536.885 401.27C544.503 400.242 550.638 395.453 555.132 389.458C586.034 348.237 581.053 189.924 572.457 135.781C568.484 110.759 560.231 86.9784 538.689 71.4542C527.585 63.4515 493.33 55.3089 488.979 48.0401C488.906 40.3073 498.482 29.846 503.851 24.1963C522.959 4.08756 546.545 0.268264 573.035 0.0897927L715.515 0.181164C735.74 0.111203 758.358 0.473867 778.36 0.0441073C849.225 -1.47647 854.914 36.4395 854.99 95.1081L854.859 256.451C854.843 284.114 852.974 318.399 856.931 345.254C863.448 389.499 893.277 421.801 932.829 379.107C990.795 315.536 1038.46 243.357 1074.11 165.168C1086.11 139.126 1097.05 111.882 1108.76 85.6463C1123.86 50.9357 1131.89 28.8794 1174.4 28.5367C1240.46 28.0028 1306.52 28.651 1372.58 28.4782C1406.12 28.3897 1450.87 23.5253 1468 59.1097V75.5391C1461.36 93.9916 1455.47 115.393 1446.42 132.838C1406.17 210.374 1349 278.561 1297.61 348.945C1275.66 379.011 1252.13 406.674 1234.77 440.015C1210.46 486.717 1261.43 523.594 1291.2 553.262C1352.61 614.451 1439.84 686.229 1468 770.145V785.228C1462.28 799.792 1456.66 813.538 1442.34 821.864C1423.24 832.973 1351.34 827.795 1326.09 827.795C1281.36 827.793 1199.8 832.026 1159.62 822.222C1061.49 798.277 999.747 655.154 933.811 637.822C922.496 634.847 910.394 635.082 900.159 641.233C858.272 666.408 863.952 747.775 853.995 789.295C851.092 801.399 845.663 810.718 834.71 817.196C795.352 840.477 649.772 821.858 603.595 809.96C467.122 774.798 362.09 680.951 279.524 570.878C263.437 549.434 248.724 526.638 233.604 504.497C171.793 413.981 118.779 318.485 69.7033 220.608C50.6284 182.564 32.5948 143.72 14.6073 105.151C9.51856 94.2415 6.56814 80.6105 0.488504 70.6389C0.330892 70.3805 0.162835 70.1278 0 69.8722V50.633Z" fill="white"/>
</svg>
